0
SECTION
2
HEADER
9
$INSUNITS
70
4
9
$ACADVER
1
AC1014
9
$HANDSEED
5
FFFF
0
ENDSEC
0
SECTION
2
TABLES
0
TABLE
2
VPORT
5
8
100
AcDbSymbolTable
0
ENDTAB
0
TABLE
2
LTYPE
5
5
100
AcDbSymbolTable
0
LTYPE
5
14
100
AcDbSymbolTableRecord
100
AcDbLinetypeTableRecord
2
BYBLOCK
70
0
0
LTYPE
5
15
100
AcDbSymbolTableRecord
100
AcDbLinetypeTableRecord
2
BYLAYER
70
0
0
ENDTAB
0
TABLE
2
LAYER
5
2
100
AcDbSymbolTable
70
2
0
LAYER
5
50
100
AcDbSymbolTableRecord
100
AcDbLayerTableRecord
2
0
70
0
6
CONTINUOUS
0
ENDTAB
0
TABLE
2
STYLE
5
3
100
AcDbSymbolTable
70
1
0
STYLE
5
11
100
AcDbSymbolTableRecord
100
AcDbTextStyleTableRecord
2
STANDARD
70
0
0
ENDTAB
0
TABLE
2
VIEW
5
6
100
AcDbSymbolTable
70
0
0
ENDTAB
0
TABLE
2
UCS
5
7
100
AcDbSymbolTable
70
0
0
ENDTAB
0
TABLE
2
APPID
5
9
100
AcDbSymbolTable
70
2
0
APPID
5
12
100
AcDbSymbolTableRecord
100
AcDbRegAppTableRecord
2
ACAD
70
0
0
ENDTAB
0
TABLE
2
DIMSTYLE
5
A
100
AcDbSymbolTable
70
1
0
ENDTAB
0
TABLE
2
BLOCK_RECORD
5
1
100
AcDbSymbolTable
70
1
0
BLOCK_RECORD
5
1F
100
AcDbSymbolTableRecord
100
AcDbBlockTableRecord
2
*MODEL_SPACE
0
BLOCK_RECORD
5
1B
100
AcDbSymbolTableRecord
100
AcDbBlockTableRecord
2
*PAPER_SPACE
0
ENDTAB
0
ENDSEC
0
SECTION
2
BLOCKS
0
BLOCK
5
20
100
AcDbEntity
100
AcDbBlockBegin
2
*MODEL_SPACE
0
ENDBLK
5
21
100
AcDbEntity
100
AcDbBlockEnd
0
BLOCK
5
1C
100
AcDbEntity
100
AcDbBlockBegin
2
*PAPER_SPACE
0
ENDBLK
5
1D
100
AcDbEntity
100
AcDbBlockEnd
0
ENDSEC
0
SECTION
2
ENTITIES
0
LWPOLYLINE
5
100
100
AcDbEntity
8
0
100
AcDbPolyline
90
10
70
1
43
0.0
10
-17.136542000409701
20
32.679879958794729
10
46.773457999590292
20
32.679879958794729
10
46.773457999590292
20
-35.900120041205277
10
-41.816542000409704
20
-35.900120041205277
10
-41.816542000409704
20
-5.5501200412052754
10
-34.816542000409704
20
-5.5501200412052825
10
-34.816542000409704
20
-17.410120041205268
10
-41.816542000409704
20
-17.410120041205268
10
-41.816542000409704
20
-5.5501200412052754
10
-17.136542000409705
20
-5.5501200412052718
0
LWPOLYLINE
5
101
100
AcDbEntity
8
0
100
AcDbPolyline
90
4
70
1
43
0.0
10
-41.816542000409704
20
-17.410120041205268
10
-32.866542000409702
20
-17.410120041205268
10
-32.866542000409702
20
-33.860120041205271
10
-41.816542000409704
20
-33.860120041205271
0
LINE
5
102
100
AcDbEntity
8
0
100
AcDbLine
10
-32.866542000409702
20
-33.860120041205271
30
0
11
-29.816542000409704
21
-33.860120041205278
31
0
0
LINE
5
103
100
AcDbEntity
8
0
100
AcDbLine
10
-29.816542000409704
20
-33.860120041205278
30
0
11
-29.816542000409704
21
-35.900120041205277
31
0
0
LWPOLYLINE
5
104
100
AcDbEntity
8
0
100
AcDbPolyline
90
4
70
1
43
0.0
10
-16.866542000409698
20
-21.900120041205273
10
-2.8665420004097006
20
-21.900120041205273
10
-2.8665420004096998
20
-35.900120041205277
10
-16.866542000409698
20
-35.900120041205277
0
LWPOLYLINE
5
105
100
AcDbEntity
8
0
100
AcDbPolyline
90
4
70
1
43
0.0
10
10.273457999590292
20
17.679879958794729
10
38.273457999590292
20
17.679879958794729
10
38.273457999590292
20
3.6798799587947273
10
10.273457999590292
20
3.6798799587947273
0
LWPOLYLINE
5
106
100
AcDbEntity
8
0
100
AcDbPolyline
90
8
70
1
43
0.0
10
-17.136542000409701
20
32.679879958794729
10
-2.1365420004097024
20
32.679879958794729
10
32.863457999590295
20
32.679879958794729
10
32.863457999590295
20
28.179879958794729
10
-2.1365420004097024
20
28.179879958794729
10
-2.1365420004097024
20
32.679879958794729
10
-2.1365420004097024
20
25.679879958794729
10
-17.136542000409701
20
25.679879958794729
0
LWPOLYLINE
5
107
100
AcDbEntity
8
0
100
AcDbPolyline
90
4
70
1
43
0.0
10
1.2734579995902917
20
19.679879958794729
10
10.273457999590292
20
19.679879958794729
10
10.273457999590292
20
-0.82012004120527449
10
1.2734579995902917
20
-0.82012004120527449
0
LWPOLYLINE
5
108
100
AcDbEntity
8
0
100
AcDbPolyline
90
4
70
1
43
0.0
10
-17.136542000409701
20
22.858996307067365
10
-12.472486776848557
20
22.858996307067365
10
-12.472486776848557
20
-1.7451302171617786
10
-17.136542000409701
20
-1.7451302171617789
0
LWPOLYLINE
5
109
100
AcDbEntity
8
0
100
AcDbPolyline
90
4
70
1
43
0.0
10
-9.7777491099091751
20
14.891945813507448
10
-3.5681362252227711
20
14.891945813507448
10
-3.5681362252227711
20
6.2219202763981318
10
-9.7777491099091751
20
6.2219202763981318
0
LWPOLYLINE
5
110
100
AcDbEntity
8
0
100
AcDbPolyline
90
4
70
1
43
0.0
10
46.773457999590292
20
-10.000120041205278
10
42.773457999590299
20
-10.000120041205276
10
42.773457999590299
20
-35.900120041205277
10
46.773457999590292
20
-35.900120041205277
0
LINE
5
111
100
AcDbEntity
8
0
100
AcDbLine
10
27.764507839068187
20
-35.900120041205277
30
0
11
27.764507839068187
21
-8.7196608215646805
31
0
0
LINE
5
112
100
AcDbEntity
8
0
100
AcDbLine
10
27.764507839068187
20
-8.7196608215646805
30
0
11
35.028583289078668
21
-8.7196608215646787
31
0
0
LINE
5
113
100
AcDbEntity
8
0
100
AcDbLine
10
35.028583289078668
20
-8.7196608215646787
30
0
11
35.028583289078675
21
-31.566349736920305
31
0
0
LINE
5
114
100
AcDbEntity
8
0
100
AcDbLine
10
35.028583289078675
20
-31.566349736920305
30
0
11
41.472521188281554
21
-31.566349736920305
31
0
0
LINE
5
115
100
AcDbEntity
8
0
100
AcDbLine
10
41.472521188281554
20
-31.566349736920305
30
0
11
41.472521188281554
21
-35.900120041205277
31
0
0
LWPOLYLINE
5
116
100
AcDbEntity
8
0
100
AcDbPolyline
90
4
70
1
43
0.0
10
27.764507839068187
20
-8.7196608215646805
10
12.416219388239522
20
-8.7196608215646805
10
12.416219388239522
20
-18.326986416739864
10
27.764507839068187
20
-18.326986416739864
0
LWPOLYLINE
5
117
100
AcDbEntity
8
0
100
AcDbPolyline
90
4
70
1
43
0.0
10
21.203407432607079
20
-18.326986416739864
10
27.764507839068187
20
-18.326986416739864
10
27.764507839068187
20
-35.900120041205277
10
21.203407432607079
20
-35.900120041205277
0
ENDSEC
0
SECTION
2
OBJECTS
0
DICTIONARY
5
C
100
AcDbDictionary
3
ACAD_GROUP
350
D
3
ACAD_MLINESTYLE
350
17
0
DICTIONARY
5
D
100
AcDbDictionary
0
DICTIONARY
5
1A
330
C
100
AcDbDictionary
0
DICTIONARY
5
17
100
AcDbDictionary
0
ENDSEC
0
EOF
